<?xml version="1.0" standalone="no"?><!DOCTYPE svg PUBLIC "-//W3C//DTD SVG 1.1//EN" "http://www.w3.org/Graphics/SVG/1.1/DTD/svg11.dtd"><svg t="1765040142070" class="icon" viewBox="0 0 1024 1024" version="1.1" xmlns="http://www.w3.org/2000/svg" p-id="37588" xmlns:xlink="http://www.w3.org/1999/xlink" width="200" height="200"><path d="M1002.68 128.006H21.354C9.572 128.006 0.01 137.538 0.01 149.318v725.334c0 11.782 9.562 21.34 21.344 21.34h421.742c13.532 6.468 47.094 21.344 68.904 21.344 21.844 0 55.406-14.876 68.938-21.344H1002.68c11.782 0 21.31-9.558 21.31-21.34V149.32a21.3 21.3 0 0 0-21.31-21.314z" fill="#48CFAD" p-id="37589"></path><path d="M938.962 85.32h-271.34c-89.31 0-133.842 18.376-155.624 34.092-21.748-15.718-66.28-34.092-155.59-34.092H85.07c-11.782 0-21.344 9.562-21.344 21.344v703.988c0 11.782 9.562 21.344 21.344 21.344h277.622c31.844 0 76.28 4.468 106.966 25.688 16 11.062 21.25 21.844 22.156 23.876l0.376 1.124c2.624 7.5 9.092 12.496 16.686 13.59h0.062c0.094 0.032 0.218 0.032 0.312 0.032 0.406 0.062 0.812 0.094 1.218 0.124 0.25 0.032 0.532 0.032 0.812 0.032 0.218 0 0.468 0.032 0.688 0.032h0.094c0.218 0 0.468-0.032 0.688-0.032 0.282 0 0.562 0 0.812-0.032 0.406-0.032 0.812-0.062 1.218-0.124 0.094 0 0.218 0 0.312-0.032h0.062c7.594-1.094 14.062-6.09 16.688-13.59l0.376-1.124c0.906-2.032 6.156-12.812 22.156-23.876 30.688-21.218 75.124-25.688 106.966-25.688h277.622c11.78 0 21.342-9.562 21.342-21.344V106.664c0-11.782-9.562-21.344-21.342-21.344z" fill="#E6E9ED" p-id="37590"></path><path d="M405.22 277.316H149.226c-11.782 0-21.344-9.53-21.344-21.312s9.562-21.344 21.344-21.344H405.22c11.782 0 21.312 9.562 21.312 21.344s-9.53 21.312-21.312 21.312zM405.22 362.66H149.226c-11.782 0-21.344-9.562-21.344-21.344s9.562-21.312 21.344-21.312H405.22c11.782 0 21.312 9.532 21.312 21.312s-9.53 21.344-21.312 21.344zM405.22 448H149.226c-11.782 0-21.344-9.562-21.344-21.344 0-11.78 9.562-21.312 21.344-21.312H405.22a21.3 21.3 0 0 1 21.312 21.312c0.002 11.782-9.53 21.344-21.312 21.344zM405.22 533.344H149.226c-11.782 0-21.344-9.562-21.344-21.342 0-11.782 9.562-21.344 21.344-21.344H405.22c11.782 0 21.312 9.562 21.312 21.344 0.002 11.78-9.53 21.342-21.312 21.342zM405.22 618.656H149.226c-11.782 0-21.344-9.532-21.344-21.312S137.446 576 149.226 576H405.22c11.782 0 21.312 9.562 21.312 21.344s-9.53 21.312-21.312 21.312zM277.222 703.996H149.226c-11.782 0-21.344-9.562-21.344-21.34 0-11.782 9.562-21.312 21.344-21.312h127.996a21.3 21.3 0 0 1 21.312 21.312c0.002 11.778-9.53 21.34-21.312 21.34z" fill="#434A54" p-id="37591"></path><path d="M789.338 42.666h-85.34c-11.782 0-21.312 9.562-21.312 21.344v895.984c0 7.406 3.812 14.25 10.124 18.156a21.418 21.418 0 0 0 20.75 0.938l33.124-16.562 33.124 16.562c3 1.5 6.282 2.25 9.532 2.25a21.56 21.56 0 0 0 11.218-3.188 21.38 21.38 0 0 0 10.124-18.156V64.008c0-11.78-9.562-21.342-21.344-21.342z" fill="#AC92EB" p-id="37592"></path><path d="M534.094 106.946c-9.156 4.094-16.406 8.376-22.094 12.468-5.344-3.874-12.124-7.906-20.592-11.78v773.114c0.188 0.344 0.312 0.624 0.406 0.812l0.376 1.124c2.624 7.5 9.092 12.496 16.686 13.59h0.062c0.094 0.032 0.218 0.032 0.312 0.032 0.406 0.062 0.812 0.094 1.218 0.124 0.25 0.032 0.532 0.032 0.812 0.032 0.218 0 0.468 0.032 0.688 0.032h0.094c0.218 0 0.468-0.032 0.688-0.032 0.282 0 0.562 0 0.812-0.032 0.406-0.032 0.812-0.062 1.218-0.124 0.094 0 0.218 0 0.312-0.032h0.062c7.594-1.094 14.062-6.09 16.688-13.59l0.376-1.124c0.25-0.562 0.844-1.782 1.876-3.468V106.946z" fill="#CCD1D9" p-id="37593"></path></svg>