<?xml version="1.0" standalone="no"?><!DOCTYPE svg PUBLIC "-//W3C//DTD SVG 1.1//EN" "http://www.w3.org/Graphics/SVG/1.1/DTD/svg11.dtd"><svg t="1765040795824" class="icon" viewBox="0 0 1024 1024" version="1.1" xmlns="http://www.w3.org/2000/svg" p-id="112490" xmlns:xlink="http://www.w3.org/1999/xlink" width="256" height="256"><path d="M847.058 6.252c-8.312-8.328-21.812-8.328-30.156 0L524.532 298.626 232.142 6.252c-8.328-8.328-21.828-8.328-30.172 0-8.328 8.328-8.328 21.844 0 30.172L494.36 328.796l-130 130 30.172 30.172 130-130 129.968 130 30.188-30.172-130-130L847.058 36.424c8.344-8.328 8.344-21.844 0-30.172z" fill="#434A54" p-id="112491"></path><path d="M1023.996 981.306c0 23.594-19.124 42.688-42.688 42.688H42.658c-23.562 0-42.656-19.094-42.656-42.688V341.328c0-23.562 19.092-42.656 42.656-42.656h938.65c23.562 0 42.688 19.092 42.688 42.656v639.978z" fill="#656D78" p-id="112492"></path><path d="M767.996 853.308c0 23.594-19.124 42.688-42.688 42.688H128.002c-23.578 0-42.672-19.094-42.672-42.688v-383.98c0-23.562 19.094-42.656 42.672-42.656h597.306c23.562 0 42.688 19.094 42.688 42.656v383.98z" fill="#5D9CEC" p-id="112493"></path><path d="M725.308 426.67H128.002c-23.578 0-42.672 19.094-42.672 42.656v383.982c0 23.594 19.094 42.688 42.672 42.688h597.306c23.562 0 42.688-19.094 42.688-42.688v-383.98c0-23.564-19.124-42.658-42.688-42.658z m0 426.638H128.002v-383.98h597.306v383.98z" fill="#4A89DC" p-id="112494"></path><path d="M917.308 448c0 11.782-9.532 21.328-21.312 21.328S874.652 459.78 874.652 448s9.562-21.328 21.344-21.328 21.312 9.546 21.312 21.328zM917.308 533.326c0 11.766-9.532 21.328-21.312 21.328s-21.344-9.562-21.344-21.328c0-11.782 9.562-21.328 21.344-21.328s21.312 9.546 21.312 21.328zM917.308 618.654c0 11.782-9.532 21.344-21.312 21.344s-21.344-9.562-21.344-21.344 9.562-21.344 21.344-21.344 21.312 9.564 21.312 21.344z" fill="#CCD1D9" p-id="112495"></path><path d="M896.058 873.996c-23.376 0-42.376-19-42.376-42.344s19-42.342 42.376-42.342c23.312 0 42.312 18.998 42.312 42.342s-18.998 42.344-42.312 42.344z" fill="#FFCE54" p-id="112496"></path><path d="M896.058 767.998c-35.188 0-63.688 28.498-63.688 63.654s28.5 63.656 63.688 63.656c35.124 0 63.624-28.5 63.624-63.656s-28.498-63.654-63.624-63.654z m0 84.654c-11.624 0-21-9.406-21-21 0-11.562 9.376-21 21-21 11.562 0 21 9.438 21 21 0 11.594-9.436 21-21 21z" fill="#F6BB42" p-id="112497"></path><path d="M464 853.308h-122.67l127.998-383.98H592z" fill="#FFFFFF" opacity=".1" p-id="112498"></path></svg>