<?xml version="1.0" standalone="no"?><!DOCTYPE svg PUBLIC "-//W3C//DTD SVG 1.1//EN" "http://www.w3.org/Graphics/SVG/1.1/DTD/svg11.dtd"><svg t="1765033855295" class="icon" viewBox="0 0 1024 1024" version="1.1" xmlns="http://www.w3.org/2000/svg" p-id="37007" xmlns:xlink="http://www.w3.org/1999/xlink" width="200" height="200"><path d="M600.434 604.496l-45.246 45.25-180.918-180.95 45.248-45.248 105.544 15.076 60.312 60.312z" fill="#D94452" p-id="37008"></path><path d="M434.626 529.058l15.078-15.078c8.328-8.326 8.328-21.842 0-30.17-8.328-8.312-21.828-8.312-30.156 0l-15.078 15.078c-0.016 0.016-0.032 0.046-0.046 0.046l30.156 30.168 0.046-0.044zM479.876 574.308l15.062-15.094c8.328-8.344 8.328-21.828 0-30.156s-21.812-8.328-30.156 0l-15.078 15.062c-0.016 0-0.032 0.032-0.046 0.062l30.17 30.156c0 0.002 0.032-0.03 0.048-0.03zM540.188 574.308c-8.328-8.344-21.844-8.344-30.172 0l-15.078 15.062c-0.016 0-0.032 0.032-0.046 0.062l30.172 30.124h0.032l15.094-15.094c8.31-8.34 8.31-21.84-0.002-30.154z" fill="#EC5564" p-id="37009"></path><path d="M494.89 589.434L196.164 888.144l-30.156 60.31-105.558 75.406L0.138 963.546l75.404-105.558 60.312-30.156L434.58 529.106z" fill="#E6E9ED" p-id="37010"></path><path d="M1017.612 157.18c8.312 8.328 8.312 21.812 0 30.156L645.684 559.246c-8.344 8.344-21.844 8.344-30.156 0l-150.776-150.776a21.294 21.294 0 0 1 0-30.156L836.678 6.388c8.312-8.328 21.812-8.328 30.124 0l150.81 150.792z" fill="#EC5564" p-id="37011"></path><path d="M600.434 423.548c-8.31-8.312-8.31-21.828 0-30.156L866.802 127.008c8.344-8.328 21.844-8.328 30.186 0 8.312 8.328 8.312 21.842 0 30.17L630.59 423.548c-8.312 8.328-21.844 8.328-30.156 0zM540.14 333.082L806.49 66.698c8.344-8.328 8.344-21.812 0-30.156l-296.506 296.54c8.328 8.328 21.828 8.328 30.156 0zM957.298 217.49L690.902 483.858c-8.312 8.328-8.312 21.828 0 30.168l296.552-296.538c-8.342-8.326-21.842-8.326-30.156 0.002z" fill="#D94452" p-id="37012"></path><path d="M75.542 857.988L0.138 963.546l60.312 60.314 105.558-75.406 29.906-59.81-60.56-60.562z" fill="#CCD1D9" p-id="37013"></path><path d="M95.652 998.734l-70.374-70.37-25.14 35.182 60.312 60.314z" fill="#424953" p-id="37014"></path><path d="M0.014 208.788s15.984 185.074 188.12 172.51c191.464-13.984 17.36-112.214 17.36-112.214l-84.84 0.016-120.64-60.312z" fill="#F6BB42" p-id="37015"></path><path d="M133.136 57.996l144.76 96.512 6.032 54.28-135.7 196.026 165.854 15.062s441.502 501.832 491.47 551.796c49.968 50 130.996 50 180.934 0 50-49.964 50-130.964 0-180.934-16.376-16.406-551.782-491.484-551.782-491.484s38.594-115.06-11.624-189.838c-118.746-176.886-289.944-51.42-289.944-51.42z m795.446 790.648c16.654 16.656 16.654 43.656 0 60.344-16.656 16.624-43.654 16.624-60.31 0-16.656-16.688-16.656-43.688 0-60.344s43.654-16.656 60.31 0z" fill="#F6BB42" p-id="37016"></path><path d="M90.496 57.996l144.746 96.512 6.032 54.28-135.7 196.026 165.87 15.062S712.934 921.708 762.9 971.672c49.966 50 130.996 50 180.962 0 49.938-49.964 49.938-130.964 0-180.934-16.404-16.406-551.794-491.484-551.794-491.484s38.56-115.06-11.64-189.838c-118.734-176.886-289.932-51.42-289.932-51.42z m795.432 790.648c16.686 16.656 16.686 43.656 0 60.344-16.656 16.624-43.624 16.624-60.312 0-16.656-16.688-16.656-43.688 0-60.344 16.686-16.656 43.656-16.656 60.312 0z" fill="#FFCE54" p-id="37017"></path><path d="M758.148 759.836c0 5.468-2.094 10.902-6.25 15.09-8.342 8.312-21.842 8.312-30.152 0L420.174 473.342c-8.328-8.328-8.328-21.844 0-30.17 8.312-8.328 21.828-8.328 30.156 0L751.9 744.742a21.36 21.36 0 0 1 6.248 15.094z" fill="#F6BB42" p-id="37018"></path><path d="M238.914 187.6l2.36 21.186-84.216 121.67c0.718 0.5 1.454 1 2.25 1.438l49.514 25.858c9.594 5.264 21.624 2.39 27.796-6.61l71.75-104.404a21.334 21.334 0 0 0 3.172-17.016 21.314 21.314 0 0 0-10.514-13.766l-49.5-25.89a21.312 21.312 0 0 0-12.612-2.466z" fill="#E6E9ED" p-id="37019"></path><path d="M261.038 315.614l24.28-35.328-67.826-37.14-24.422 35.28z" fill="#CCD1D9" p-id="37020"></path></svg>